<?xml version="1.0" encoding="UTF-8" standalone="no"?>
<!-- Created with Inkscape (http://www.inkscape.org/) -->
<svg
   xmlns:svg="http://www.w3.org/2000/svg"
   xmlns="http://www.w3.org/2000/svg"
   version="1.0"
   width="743.3858"
   height="168.30708"
   id="svg2479">
  <defs
     id="defs2481" />
  <g
     transform="translate(-983.89771,630.87603)"
     id="layer1">
    <g
       transform="translate(17.659441,17.782697)"
       id="g3437">
      <path
         d="M 1574.5889,-602.65958 L 1594.4823,-602.65958 L 1594.4823,-619.78464 L 1574.5889,-619.78464 L 1574.5889,-602.65958 z M 1665.8221,-533.44938 C 1659.6996,-527.06081 1649.4068,-524.57628 1640.7022,-528.0368 C 1638.972,-528.65788 1637.3216,-529.63393 1635.7511,-530.60997 C 1633.036,-532.65082 1630.4894,-535.22398 1628.7679,-538.24087 C 1625.0059,-544.54076 1624.6154,-553.41388 1626.4342,-560.86725 C 1628.7326,-569.5629 1636.4877,-576.75013 1645.5026,-577.99237 C 1654.8282,-579.32329 1663.6127,-575.15295 1668.5372,-567.78828 C 1672.7164,-561.8433 1673.3554,-553.5026 1672.193,-545.783 C 1671.412,-540.99152 1669.0697,-536.82116 1665.8221,-533.44938 z M 1181.5371,-562.81934 C 1183.1433,-563.44048 1184.8291,-564.41651 1186.4174,-565.74745 C 1192.4599,-570.6277 1195.6099,-579.14587 1193.2408,-587.3091 C 1191.5106,-593.16538 1187.1273,-598.13429 1181.413,-600.26384 C 1176.7989,-602.03846 1171.0758,-601.86099 1166.0358,-602.03846 L 1151.1114,-602.03846 L 1150.8894,-602.03846 L 1150.8894,-561.13344 L 1168.5468,-561.13344 C 1172.9569,-561.22222 1178.0501,-561.57709 1181.5371,-562.81934 z M 1539.5844,-533.44938 C 1533.7548,-527.68187 1524.5091,-525.02 1516.053,-527.59315 C 1507.242,-530.07759 1500.2856,-538.15214 1498.9191,-547.4689 C 1497.8454,-555.1885 1499.274,-562.9968 1503.7993,-568.58685 C 1509.7265,-576.30647 1519.9129,-579.94443 1529.6644,-576.92759 C 1538.5551,-574.44311 1545.8135,-565.83622 1546.7895,-556.16453 C 1547.8543,-547.38018 1545.5915,-539.2169 1539.5844,-533.44938 z M 1566.3545,-544.71822 C 1567.1267,-548.79982 1567.1443,-553.41388 1566.6918,-557.67294 C 1564.7219,-572.57979 1555.1568,-585.62321 1541.9801,-591.39072 C 1533.8169,-595.20617 1523.329,-596.35969 1514.0034,-594.58505 C 1500.108,-592.10056 1489.1585,-582.96128 1483.746,-572.3136 C 1478.0229,-561.13344 1478.4842,-550.66321 1479.487,-544.54076 C 1482.5747,-525.81844 1497.9874,-510.9117 1517.9695,-509.4034 C 1526.0974,-508.78211 1533.1426,-509.4034 1540.942,-512.59758 C 1553.9588,-517.92135 1564.0743,-530.43256 1566.3545,-544.71822 z M 1278.7863,-533.44938 C 1272.8591,-527.68187 1263.4802,-525.02 1254.8821,-527.59315 C 1245.9469,-530.07759 1238.8662,-538.15214 1237.4908,-547.4689 C 1236.4084,-555.1885 1237.8369,-562.9968 1242.442,-568.58685 C 1248.458,-576.30647 1258.7864,-579.94443 1268.7064,-576.92759 C 1277.7303,-574.44311 1285.1128,-565.83622 1286.0978,-556.16453 C 1287.1803,-547.38018 1284.8822,-539.2169 1278.7863,-533.44938 z M 1305.9646,-544.71822 C 1306.7454,-548.79982 1306.7632,-553.41388 1306.3107,-557.67294 C 1304.3054,-572.57979 1294.5893,-585.62321 1281.2176,-591.39072 C 1272.9212,-595.20617 1262.2734,-596.35969 1252.8059,-594.58505 C 1238.6976,-592.10056 1227.5797,-582.96128 1222.0783,-572.3136 C 1216.2664,-561.13344 1216.7366,-550.66321 1217.7571,-544.54076 C 1220.8894,-525.81844 1236.5415,-510.9117 1256.8253,-509.4034 C 1265.0861,-508.78211 1272.2292,-509.4034 1280.1705,-512.59758 C 1293.3736,-517.92135 1303.6488,-530.43256 1305.9646,-544.71822 z M 1396.1597,-533.44938 C 1392.5927,-528.12552 1386.2662,-525.99602 1379.9397,-525.46351 C 1373.622,-524.93122 1366.9583,-526.70588 1364.1188,-532.29586 C 1362.2911,-535.84515 1362.6993,-540.99152 1365.0151,-544.18583 C 1368.5288,-548.97731 1374.7666,-549.68715 1380.5341,-550.13081 L 1387.4995,-550.397 L 1399.2918,-550.48572 L 1399.2918,-550.21953 C 1399.2742,-544.18583 1399.3806,-538.0634 1396.1597,-533.44938 z M 1399.922,-510.46798 L 1419.6202,-510.46798 L 1419.629,-513.0413 L 1419.5493,-551.90543 L 1419.4516,-561.22222 L 1419.212,-566.19111 C 1418.8571,-572.40232 1416.5322,-577.99237 1412.8411,-582.60636 C 1408.8836,-587.66404 1403.7372,-590.85836 1396.7808,-593.25408 C 1393.7196,-594.23014 1386.3815,-596.0935 1379.2122,-595.64982 C 1367.2776,-594.85124 1354.2697,-590.41469 1350.8979,-588.72879 L 1350.9956,-569.29671 C 1350.9956,-569.29671 1360.41,-575.50788 1370.6938,-577.90365 C 1379.6292,-580.03316 1389.4871,-578.34726 1391.1198,-577.63739 C 1397.6503,-574.97549 1399.6911,-569.03053 1399.3451,-563.44048 L 1389.6824,-563.44048 L 1378.3159,-563.26299 C 1370.1171,-562.90808 1361.9983,-561.93207 1355.1927,-558.29408 C 1349.4161,-555.01101 1345.3345,-549.2435 1343.9327,-542.67739 C 1341.3682,-532.20714 1345.3345,-521.29332 1353.0808,-515.25947 C 1360.0639,-509.49197 1370.0106,-508.42717 1379.496,-509.4034 C 1387.4019,-510.11305 1394.598,-513.83974 1399.2742,-519.96216 L 1399.3629,-519.96216 L 1399.922,-510.46798 z M 1574.5889,-510.46798 L 1594.5711,-510.46798 L 1594.5711,-595.56108 L 1574.5889,-595.56108 L 1574.5889,-510.46798 z M 1335.0861,-619.78464 L 1315.1038,-619.78464 L 1315.1038,-510.46798 L 1335.0861,-510.46798 L 1335.0861,-619.78464 z M 1672.4858,-619.78464 L 1672.4858,-608.07216 L 1672.4503,-584.91334 L 1672.3703,-584.55845 L 1671.8824,-585.00213 C 1666.8248,-590.32599 1660.3119,-593.96393 1652.9117,-595.11745 C 1636.0883,-597.60193 1620.2676,-589.88231 1611.7671,-575.77407 C 1605.4495,-565.83622 1604.1985,-551.72798 1607.1797,-539.7493 C 1611.0928,-525.02 1623.2224,-513.30744 1637.641,-510.11305 C 1649.0874,-507.36259 1661.2258,-509.84691 1669.4335,-517.30027 C 1670.3918,-518.09893 1671.4387,-519.25251 1672.3438,-520.05095 C 1672.6632,-516.94534 1672.7253,-513.75116 1672.9028,-510.64556 L 1672.9028,-510.46798 L 1691.9356,-510.46798 C 1691.8203,-546.93652 1692.0509,-583.40495 1691.9267,-619.78464 L 1672.4858,-619.78464 z M 1453.0097,-510.46798 L 1453.0097,-546.67033 C 1453.0097,-550.92939 1452.9297,-555.89834 1453.5243,-559.89119 C 1454.4915,-566.3686 1459.2651,-571.78116 1465.2013,-574.1769 C 1469.7708,-576.12901 1475.2013,-576.12901 1480.4098,-576.30647 L 1480.4807,-591.12453 C 1480.4363,-592.54424 1480.5606,-593.87518 1480.3565,-595.20617 C 1473.7816,-595.38364 1467.1178,-594.58505 1461.6343,-591.74567 C 1457.748,-589.61612 1454.9262,-586.42181 1452.5304,-582.87255 L 1452.486,-582.96128 L 1451.9005,-593.69774 L 1451.8561,-593.96393 L 1432.9298,-593.96393 L 1432.8678,-576.75013 L 1432.9031,-511.71036 L 1432.8499,-510.46798 L 1453.0097,-510.46798 z M 1161.4663,-619.78464 L 1172.8769,-619.69594 C 1180.9425,-619.60722 1188.9728,-618.89735 1195.6719,-615.25939 C 1207.3933,-609.1369 1215.1663,-596.80335 1215.3704,-583.13874 C 1215.6453,-574.08818 1213.0987,-566.01369 1208.3782,-559.27014 C 1205.6098,-555.2772 1203.4449,-553.5913 1201.6791,-552.17162 C 1200.1529,-551.01814 1197.4643,-549.15477 1196.2488,-548.44491 C 1189.7891,-544.80695 1182.0606,-543.38726 1174.7759,-543.47603 L 1150.8185,-543.47603 L 1150.8362,-510.46798 L 1130.3038,-510.46798 L 1130.3038,-619.78464 L 1161.4663,-619.78464"
         style="fill:#fff;fill-rule:nonzero;stroke:none;stroke-width:0.14;stroke-linecap:butt;stroke-linejoin:miter;stroke-miterlimit:4;stroke-dasharray:none"
         id="path3620" />
      <path
         d="M 1072.8506,-564.50523 L 1050.9517,-586.33305 L 1029.0618,-564.50523 L 1050.9517,-542.58869 L 1072.8506,-564.50523"
         style="fill:#8f807c;fill-rule:nonzero;stroke:none;stroke-width:0.134;stroke-linecap:butt;stroke-linejoin:miter;stroke-miterlimit:4;stroke-dasharray:none"
         id="path3624" />
      <path
         d="M 1094.7405,-586.33305 L 1072.8506,-608.24963 L 1050.9517,-586.33305 L 1072.8506,-564.50523 L 1094.7405,-586.33305"
         style="fill:#a153a0;fill-rule:nonzero;stroke:none;stroke-width:0.134;stroke-linecap:butt;stroke-linejoin:miter;stroke-miterlimit:4;stroke-dasharray:none"
         id="path3626" />
      <path
         d="M 1094.7405,-542.58869 L 1072.8506,-564.50523 L 1050.9517,-542.58869 L 1072.8506,-520.67203 L 1094.7405,-542.58869"
         style="fill:#00aaab;fill-rule:nonzero;stroke:none;stroke-width:0.134;stroke-linecap:butt;stroke-linejoin:miter;stroke-miterlimit:4;stroke-dasharray:none"
         id="path3628" />
      <path
         d="M 1116.6304,-564.50523 L 1094.7405,-586.33305 L 1072.8506,-564.50523 L 1094.7405,-542.58869 L 1116.6304,-564.50523"
         style="fill:#0070bb;fill-rule:nonzero;stroke:none;stroke-width:0.134;stroke-linecap:butt;stroke-linejoin:miter;stroke-miterlimit:4;stroke-dasharray:none"
         id="path3630" />
      <path
         d="M 1007.8551,-585.71197 L 1006.4798,-587.04289 L 984.58094,-565.12638 L 983.89771,-564.50523 L 1006.4798,-541.87885 L 1029.0618,-564.50523 L 1007.8551,-585.71197"
         style="fill:#ffd100;fill-rule:nonzero;stroke:none;stroke-width:0.134;stroke-linecap:butt;stroke-linejoin:miter;stroke-miterlimit:4;stroke-dasharray:none"
         id="path3632" />
      <path
         d="M 1029.754,-607.53979 L 1029.0618,-608.24963 L 1028.3698,-608.9595 L 1006.4798,-587.04289 L 1029.0618,-564.50523 L 1050.9517,-586.33305 L 1029.754,-607.53979"
         style="fill:#f6931c;fill-rule:nonzero;stroke:none;stroke-width:0.134;stroke-linecap:butt;stroke-linejoin:miter;stroke-miterlimit:4;stroke-dasharray:none"
         id="path3634" />
      <path
         d="M 1051.6439,-629.45633 L 1050.2597,-630.87603 L 1028.3698,-608.9595 L 1029.0618,-608.24963 L 1050.9517,-586.33305 L 1072.8506,-608.24963 L 1051.6439,-629.45633"
         style="fill:#ec1b24;fill-rule:nonzero;stroke:none;stroke-width:0.134;stroke-linecap:butt;stroke-linejoin:miter;stroke-miterlimit:4;stroke-dasharray:none"
         id="path3636" />
      <path
         d="M 1029.0618,-564.50523 L 1007.864,-543.29854 L 1007.8551,-543.29854 L 1006.4798,-541.87885 L 1028.3698,-519.96216 L 1029.0618,-520.67203 L 1050.9517,-542.58869 L 1029.0618,-564.50523"
         style="fill:#8bc63f;fill-rule:nonzero;stroke:none;stroke-width:0.134;stroke-linecap:butt;stroke-linejoin:miter;stroke-miterlimit:4;stroke-dasharray:none"
         id="path3638" />
      <path
         d="M 1050.9517,-542.58869 L 1029.754,-521.38189 L 1028.3698,-519.96216 L 1050.2597,-498.13434 L 1072.8506,-520.67203 L 1050.9517,-542.58869"
         style="fill:#0cb04a;fill-rule:nonzero;stroke:none;stroke-width:0.134;stroke-linecap:butt;stroke-linejoin:miter;stroke-miterlimit:4;stroke-dasharray:none"
         id="path3640" />
    </g>
  </g>
</svg>
